<svg xmlns="http://www.w3.org/2000/svg" viewBox="0 0 600 800" width="600" height="800">
<rect width="600" height="800" fill="#F6EEE6"/>
<g opacity=".18" fill="none" stroke="#C9A15A" stroke-width="2">
<path d="M0 60h600M0 740h600"/><circle cx="20" cy="60" r="10"/><circle cx="20" cy="740" r="10"/><circle cx="60" cy="60" r="10"/><circle cx="60" cy="740" r="10"/><circle cx="100" cy="60" r="10"/><circle cx="100" cy="740" r="10"/><circle cx="140" cy="60" r="10"/><circle cx="140" cy="740" r="10"/><circle cx="180" cy="60" r="10"/><circle cx="180" cy="740" r="10"/><circle cx="220" cy="60" r="10"/><circle cx="220" cy="740" r="10"/><circle cx="260" cy="60" r="10"/><circle cx="260" cy="740" r="10"/><circle cx="300" cy="60" r="10"/><circle cx="300" cy="740" r="10"/><circle cx="340" cy="60" r="10"/><circle cx="340" cy="740" r="10"/><circle cx="380" cy="60" r="10"/><circle cx="380" cy="740" r="10"/><circle cx="420" cy="60" r="10"/><circle cx="420" cy="740" r="10"/><circle cx="460" cy="60" r="10"/><circle cx="460" cy="740" r="10"/><circle cx="500" cy="60" r="10"/><circle cx="500" cy="740" r="10"/><circle cx="540" cy="60" r="10"/><circle cx="540" cy="740" r="10"/><circle cx="580" cy="60" r="10"/><circle cx="580" cy="740" r="10"/>
</g>
<path d="M300 170c-38 0-58 30-58 62 0 22 10 38 22 48l-40 70-40 330h232l-18-250 52-150c-40-40-80-60-92-60 12-10 22-28 22-48 0-32-20-60-58-60z" fill="#6B1030"/>
<path d="M282 290l116-8 30 90-60 350h-40l40-330z" fill="#C9A15A" opacity=".85"/>
<path d="M300 290l100-6 26 80-52 330" fill="none" stroke="#6B1030" stroke-width="6" stroke-dasharray="2 10"/>
<rect x="190" y="40" width="220" height="44" rx="22" fill="#2A1B20" opacity=".78"/>
<text x="300" y="69" text-anchor="middle" font-family="Georgia,serif" font-size="20" fill="#FBF6F2">Demo image</text>
</svg>